<svg width="24" height="24" viewBox="0 0 24 24" fill="none" xmlns="http://www.w3.org/2000/svg">
<path d="M5.78936 23.1128C5.0328 23.5692 4.09943 22.892 4.29855 22.0311L5.797 15.5532C5.88048 15.1924 5.75765 14.8149 5.47779 14.5723L0.450993 10.2142C-0.216536 9.63546 0.139412 8.53877 1.01957 8.46237L7.66589 7.88543C8.03507 7.85338 8.35626 7.61981 8.50052 7.27847L11.0782 1.17941C11.4224 0.365147 12.5763 0.365148 12.9205 1.17941L15.4982 7.27847C15.6424 7.61981 15.9636 7.85338 16.3328 7.88543L22.9791 8.46237C23.8593 8.53877 24.2152 9.63546 23.5477 10.2142L18.5209 14.5723C18.241 14.8149 18.1182 15.1924 18.2017 15.5532L19.7001 22.0311C19.8993 22.892 18.9659 23.5692 18.2093 23.1128L12.5159 19.6783C12.1982 19.4866 11.8005 19.4866 11.4828 19.6783L5.78936 23.1128Z" fill="#FACD09"/>
</svg>
