<svg width="24" height="24" viewBox="0 0 24 24" fill="none" xmlns="http://www.w3.org/2000/svg">
<path d="M5.53109 22.6846C5.15281 22.9128 4.68613 22.5742 4.78569 22.1438L6.28414 15.6659C6.40935 15.1246 6.22511 14.5584 5.80532 14.1945L0.778524 9.83641C0.444759 9.54704 0.622735 8.99869 1.06281 8.96049L7.70913 8.38356C8.2629 8.33549 8.74468 7.98512 8.96108 7.47313L11.5388 1.37406C11.7109 0.966932 12.2878 0.96693 12.4599 1.37407L15.0376 7.47312C15.254 7.98513 15.7358 8.33549 16.2896 8.38356L22.9359 8.96049C23.376 8.99869 23.5539 9.54704 23.2202 9.83641L18.1934 14.1945C17.7736 14.5584 17.5893 15.1246 17.7146 15.6659L19.213 22.1438C19.3126 22.5742 18.8459 22.9128 18.4676 22.6846L12.7741 19.2501C12.2976 18.9627 11.7011 18.9627 11.2245 19.2501L5.53109 22.6846Z" stroke="#737373"/>
</svg>
